<?xml version="1.0" encoding="UTF-8"?>
<svg width="40px" height="40px" viewBox="0 0 40 40" version="1.1" xmlns="http://www.w3.org/2000/svg" xmlns:xlink="http://www.w3.org/1999/xlink">
    <!-- Generator: Sketch 54.1 (76490) - https://sketchapp.com -->
    <title>ic_list_42</title>
    <desc>Created with Sketch.</desc>
    <g id="ic_list_42" stroke="none" stroke-width="1" fill="none" fill-rule="evenodd">
        <g id="ic_list_40" fill="#006EFF">
            <circle id="Oval" cx="20" cy="20" r="20"></circle>
        </g>
        <g id="编组" transform="translate(10.000000, 11.000000)" fill="#FFFFFF">
            <path d="M3.125,12 L-8.8817842e-16,17 L-1.11022302e-16,10 L0,2 C-1.3527075e-16,0.8954305 0.8954305,2.02906125e-16 2,0 L15,0 C16.1045695,-2.02906125e-16 17,0.8954305 17,2 L17,10 C17,11.1045695 16.1045695,12 15,12 L3.125,12 Z" id="形状结合"></path>
            <path d="M10.6666667,15 L8,19 L8,14 L8,5 C8,4.44771525 8.44771525,4 9,4 L20,4 C20.5522847,4 21,4.44771525 21,5 L21,14 C21,14.5522847 20.5522847,15 20,15 L10.6666667,15 Z" id="形状结合" opacity="0.75" transform="translate(14.500000, 11.500000) scale(-1, 1) translate(-14.500000, -11.500000) "></path>
        </g>
    </g>
</svg>